[img]http://img809.imageshack.us/img809/2566/vforvendettamay20thblur.jpg[/img]
 
http://www.imdb.com/title/tt0434409/

Source: V.for.Vendetta.2005.BluRay.720p.x264.DTS-WiKi

Subs: Arabic, Danish, Dutch, English, Farsi-Persian, Finnish, French, Greek, Hungarian, Norwegian, Portuguese, Romanian, Spanish and Swedish.

Sample and Screens included.

General
Complete name                    : V for Vendetta-720p MP4 AAC BRRip 2005-CC.mp4
Format                           : MPEG-4
Format profile                   : Base Media
Codec ID                         : isom
File size                        : 2.08 GiB
Duration                         : 2h 12mn
Overall bit rate                 : 2 252 Kbps
Encoded date                     : UTC 2012-02-19 08:39:20
Tagged date                      : UTC 2012-02-19 08:39:20
Writing application              : Yamb 2.1.0.0 

Video
ID                               : 1
Format                           : AVC
Format/Info                      : Advanced Video Codec
Format profile                   : High@L3.1
Format settings, CABAC           : Yes
Format settings, ReFrames        : 5 frames
Codec ID                         : avc1
Codec ID/Info                    : Advanced Video Coding
Duration                         : 2h 12mn
Bit rate mode                    : Variable
Bit rate                         : 1 816 Kbps
Maximum bit rate                 : 16.1 Mbps
Width                            : 1 280 pixels
Height                           : 528 pixels
Display aspect ratio             : 2.40:1
Frame rate mode                  : Variable
Frame rate                       : 23.976 fps
Minimum frame rate               : 19.048 fps
Maximum frame rate               : 24.390 fps
Color space                      : YUV
Chroma subsampling               : 4:2:0
Bit depth                        : 8 bits
Scan type                        : Progressive
Bits/(Pixel*Frame)               : 0.112
Stream size                      : 1.67 GiB (80%)
Writing library                  : x264 core 112
Encoding settings                : cabac=1 / ref=5 / deblock=1:0:0 / analyse=0x3:0x113 / me=hex / subme=7 / psy=1 / psy_rd=1.00:0.00 / mixed_ref=1 / me_range=16 / chroma_me=1 / trellis=1 / 8x8dct=1 / cqm=0 / deadzone=21,11 / fast_pskip=1 / chroma_qp_offset=-2 / threads=3 / sliced_threads=0 / nr=0 / decimate=1 / interlaced=0 / constrained_intra=0 / bframes=5 / b_pyramid=2 / b_adapt=2 / b_bias=0 / direct=1 / weightb=1 / open_gop=0 / weightp=2 / keyint=240 / keyint_min=23 / scenecut=40 / intra_refresh=0 / rc_lookahead=50 / rc=abr / mbtree=1 / bitrate=1816 / ratetol=1.0 / qcomp=0.60 / qpmin=3 / qpmax=51 / qpstep=4 / ip_ratio=1.40 / aq=1:1.00
Encoded date                     : UTC 2012-02-19 22:59:20
Tagged date                      : UTC 2012-02-19 08:43:31
Color primaries                  : BT.709-5, BT.1361, IEC 61966-2-4, SMPTE RP177
Transfer characteristics         : BT.709-5, BT.1361
Matrix coefficients              : BT.709-5, BT.1361, IEC 61966-2-4 709, SMPTE RP177

Audio
ID                               : 2
Format                           : AAC
Format/Info                      : Advanced Audio Codec
Format version                   : Version 4
Format profile                   : LC
Format settings, SBR             : No
Codec ID                         : 40
Duration                         : 2h 12mn
Bit rate mode                    : Variable
Bit rate                         : 446 Kbps
Maximum bit rate                 : 851 Kbps
Channel(s)                       : 6 channels
Channel positions                : Front: L C R, Side: L R, LFE
Sampling rate                    : 48.0 KHz
Stream size                      : 423 MiB (20%)
Language                         : English
Encoded date                     : UTC 2012-02-19 08:42:33
Tagged date                      : UTC 2012-02-19 08:43:31

Enjoy...

[img]http://img19.imageshack.us/img19/9859/vforvendetta720pmp4aacb.png[/img]

[img]http://img213.imageshack.us/img213/9859/vforvendetta720pmp4aacb.png[/img]

[img]http://img560.imageshack.us/img560/9859/vforvendetta720pmp4aacb.png[/img]

[img]http://img855.imageshack.us/img855/9859/vforvendetta720pmp4aacb.png[/img]

[img]http://img716.imageshack.us/img716/9859/vforvendetta720pmp4aacb.png[/img]

[img]http://img843.imageshack.us/img843/9859/vforvendetta720pmp4aacb.png[/img]

[img]http://img836.imageshack.us/img836/9859/vforvendetta720pmp4aacb.png[/img]